<?xml version="1.0" standalone="no"?>
<!DOCTYPE svg PUBLIC "-//W3C//DTD SVG 20010904//EN"
 "http://www.w3.org/TR/2001/REC-SVG-20010904/DTD/svg10.dtd">
<svg version="1.0" xmlns="http://www.w3.org/2000/svg"
 width="700.000000pt" height="700.000000pt" viewBox="0 0 700.000000 700.000000"
 preserveAspectRatio="xMidYMid meet">
<metadata>
Created by potrace 1.14, written by Peter Selinger 2001-2017
</metadata>
<g transform="translate(0.000000,700.000000) scale(0.100000,-0.100000)"
fill="#000000" stroke="none">
<path d="M3295 6994 c-452 -30 -906 -148 -1305 -340 -1015 -490 -1727 -1421
-1930 -2526 -72 -394 -72 -855 1 -1258 87 -484 294 -979 576 -1377 172 -244
427 -519 644 -696 530 -431 1145 -691 1829 -774 175 -21 580 -23 745 -5 625
71 1187 283 1678 634 155 111 260 200 415 352 588 576 935 1293 1034 2131 7
62 13 220 13 365 0 258 -10 376 -46 590 -137 808 -562 1550 -1194 2085 -523
442 -1162 719 -1850 800 -128 15 -493 26 -610 19z m367 -652 c185 -50 333
-135 464 -266 136 -136 222 -287 270 -471 22 -83 26 -123 27 -235 0 -127 -2
-147 -40 -306 -4 -18 1 -22 34 -28 36 -6 40 -4 77 41 197 238 422 381 676 429
78 15 436 31 463 21 12 -4 3 -43 -55 -224 -80 -251 -162 -567 -179 -686 l-12
-82 45 -66 c59 -87 100 -189 133 -329 101 -439 114 -472 190 -510 47 -24 61
-25 243 -28 l192 -4 0 -431 0 -430 -41 -76 c-103 -188 -287 -431 -430 -566
-253 -240 -499 -378 -856 -481 -10 -3 -13 -83 -13 -359 l0 -355 -485 0 -485 0
-5 23 c-5 23 -75 575 -75 592 0 6 -88 10 -242 11 -210 0 -400 13 -460 30 -17
5 -18 -15 -18 -325 l0 -331 -497 2 -498 3 -67 558 -67 558 -66 72 c-199 217
-346 523 -415 868 l-11 56 -112 6 c-191 9 -336 70 -459 192 -192 191 -222 552
-66 793 93 143 274 249 461 268 l67 7 0 -212 0 -211 -24 0 c-12 0 -38 -5 -57
-12 -89 -30 -128 -90 -129 -198 0 -139 72 -205 224 -205 l80 0 12 105 c48 421
234 789 530 1051 107 95 287 214 415 273 l105 49 -32 81 c-50 122 -68 240 -61
404 4 108 10 156 31 227 108 364 398 636 766 716 115 25 340 21 452 -9z"/>
<path d="M3290 5945 c-224 -51 -405 -234 -456 -462 -22 -98 -14 -215 20 -313
37 -108 50 -124 94 -116 323 55 516 63 996 41 5 0 20 29 34 65 30 80 41 241
23 329 -17 78 -82 206 -135 267 -61 70 -166 139 -256 170 -95 32 -227 40 -320
19z"/>
<path d="M4999 4996 c-67 -45 -157 -136 -208 -209 -16 -23 -52 -86 -81 -140
-28 -53 -54 -97 -56 -97 -2 0 -55 15 -117 34 -223 68 -454 95 -858 103 -415 8
-635 -18 -900 -107 -233 -77 -399 -178 -560 -339 -193 -193 -292 -389 -341
-676 -26 -157 -22 -439 11 -580 63 -281 178 -493 359 -666 l96 -92 53 -446
c29 -245 55 -452 58 -459 3 -8 34 -12 105 -12 l100 0 0 386 c0 362 1 385 18
380 9 -3 100 -26 202 -50 343 -83 320 -81 828 -80 248 1 452 -1 452 -2 0 -2
18 -143 40 -313 22 -170 40 -311 40 -315 0 -3 45 -6 100 -6 l100 0 0 325 0
324 33 5 c324 53 402 73 554 146 281 133 489 324 687 626 l66 102 0 180 0 180
-72 16 c-177 40 -317 147 -391 298 -40 84 -85 237 -137 468 -42 190 -71 252
-151 329 l-63 60 3 93 c3 103 37 319 75 473 13 55 23 101 22 102 -1 1 -31 -17
-67 -41z m-111 -1262 c121 -71 137 -243 31 -339 -50 -45 -76 -55 -145 -55
-102 0 -183 66 -205 167 -18 78 6 148 67 202 75 66 166 75 252 25z"/>
</g>
</svg>
