<svg height="512pt" viewBox="0 0 512 512" width="512pt" xmlns="http://www.w3.org/2000/svg" xmlns:xlink="http://www.w3.org/1999/xlink"><linearGradient id="a" gradientTransform="matrix(1 0 0 -1 0 -18006)" gradientUnits="userSpaceOnUse" x1="0" x2="512" y1="-18262" y2="-18262"><stop offset="0" stop-color="#00f38d"/><stop offset="1" stop-color="#009eff"/></linearGradient><path d="m512 256c0 141.386719-114.613281 256-256 256s-256-114.613281-256-256 114.613281-256 256-256 256 114.613281 256 256zm0 0" fill="url(#a)"/><g fill="#fff"><path d="m365.097656 252.269531c0 8.660157-7.019531 15.679688-15.679687 15.679688-8.65625 0-15.675781-7.019531-15.675781-15.679688 0-8.65625 7.019531-15.675781 15.675781-15.675781 8.660156 0 15.679687 7.019531 15.679687 15.675781zm0 0"/><path d="m438 249.027344c-10.433594 0-17.4375-1.460938-20.257812-4.222656-2.582032-2.523438-4.101563-8.210938-6.023438-15.410157l-.171875-.640625c-1.132813-4.226562-2.007813-8.367187-2.855469-12.375-2.597656-12.300781-5.273437-24.960937-14.855468-36.09375 2.050781-16.695312 9.78125-42.933594 12.964843-52.722656l6.382813-19.636719h-20.648438c-34.515625 0-55.816406 21.617188-66.277344 36.257813-2.035156-.414063-4.148437-.796875-6.292968-1.164063 2.464844-7.445312 3.746094-15.277343 3.746094-23.230469 0-40.6875-33.105469-73.792968-73.792969-73.792968-40.691407 0-73.792969 33.105468-73.792969 73.792968 0 11.242188 2.546875 22.253907 7.410156 32.257813-11.945312 4.886719-22.773437 11.058594-32.285156 18.472656-27.546875 21.464844-43.125 52.53125-45.421875 90.265625h-6.992187c-.042969 0-4.578126-.203125-8.710938-2.269531-3.523438-1.761719-7.125-4.75-7.125-13.5625 0-8.59375 3.460938-11.613281 6.472656-13.285156 4.324219-2.398438 9.226563-2.546875 9.277344-2.550781l-.175781.003906v-30c-18.320313 0-45.574219 12.207031-45.574219 45.832031 0 33.628906 27.410156 45.832031 45.832031 45.832031h8.15625c4.171875 28.617188 17.042969 55.113282 35.828125 73.03125l9.863282 82.183594h72.207031v-48.175781c10.203125 1.75 20.78125 2.707031 34.28125 2.707031 6.390625 0 12.613281-.203125 18.648437-.414062l5.882813 45.882812h71.3125v-52.003906c39.992187-9.644532 73.046875-36.777344 96.15625-79.148438l1.832031-3.355468v-62.460938h-15zm-225.25-106.058594c-4.335938-6.933594-6.625-14.949219-6.625-23.175781 0-24.148438 19.644531-43.792969 43.792969-43.792969 24.144531 0 43.792969 19.644531 43.792969 43.792969 0 6.898437-1.632813 13.640625-4.710938 19.730469-10.445312-.710938-20.765625-1.023438-29.835938-1.023438-16.417968 0-31.929687 1.5625-46.328124 4.621094-.03125-.050782-.054688-.105469-.085938-.152344zm210.25 160.796875c-20.980469 36.722656-49.597656 57.914063-85.113281 63l-12.875 1.84375v47.390625h-14.914063l-5.964844-46.515625-13.433593.238281c-4.304688.078125-8.691407.230469-12.933594.378906-6.085937.210938-12.378906.433594-18.597656.433594-18.671875 0-30.453125-2.050781-45.664063-5.832031l-18.617187-4.625v55.921875h-15.589844l-8.070313-67.257812-4.550781-3.8125c-19.214843-16.105469-31.152343-44.558594-31.152343-74.261719 0-63.976563 46.222656-102.167969 123.644531-102.167969 21.183593 0 52.136719 1.882812 69.648437 7.191406l11.738282 3.5625 5.816406-10.800781c3.410156-6.320313 11.300781-18.414063 24.640625-25.332031-3.644531 13.839844-7.335938 30.542968-7.652344 42.4375l-.191406 7.101562 5.371093 4.644532c6.398438 5.53125 8.019532 12.109374 10.804688 25.277343.882812 4.1875 1.886719 8.933594 3.226562 13.929688l.167969.636719c2.738281 10.234374 5.570313 20.820312 14.015625 29.089843 6.371094 6.238281 14.886719 10.097657 26.25 11.789063v25.738281zm0 0"/></g></svg>